HIERARCHY
ROOT Hips
{
  OFFSET 46.4214 83.9301 17.5138
  CHANNELS 6 Xposition Yposition Zposition Zrotation Xrotation Yrotation
  JOINT spine
  {
    OFFSET 0 6.2448 0.359107
    CHANNELS 3 Zrotation Xrotation Yrotation
    JOINT spine1
    {
      OFFSET 0 9.06941 0
      CHANNELS 3 Zrotation Xrotation Yrotation
      JOINT spine2
      {
        OFFSET 0 8.69014 0
        CHANNELS 3 Zrotation Xrotation Yrotation
        JOINT Neck
        {
          OFFSET 0 22.3112 1.06372
          CHANNELS 3 Zrotation Xrotation Yrotation
          JOINT Head
          {
            OFFSET 0 6.74081 0
            CHANNELS 3 Zrotation Xrotation Yrotation
            End Site
            {
              OFFSET 0 16.3165 -5.38097
            }
          }
        }
        JOINT RightShoulder
        {
          OFFSET -3.65916 9.38468 -0.509514
          CHANNELS 3 Zrotation Xrotation Yrotation
          JOINT RightArm
          {
            OFFSET 0 12.3089 0
            CHANNELS 3 Zrotation Xrotation Yrotation
            JOINT RightArmRoll
            {
              OFFSET 0 6.21375 0
              CHANNELS 3 Zrotation Xrotation Yrotation
              JOINT RightForeArm
              {
                OFFSET 0 18.0985 0
                CHANNELS 3 Zrotation Xrotation Yrotation
                JOINT RightForeArmRoll
                {
                  OFFSET 0 6.97279 0
                  CHANNELS 3 Zrotation Xrotation Yrotation
                  JOINT RightHand
                  {
                    OFFSET 0 13.9929 0
                    CHANNELS 3 Zrotation Xrotation Yrotation
                    End Site
                    {
                      OFFSET 0 0 0
                    }
                  }
                }
              }
            }
          }
        }
        JOINT LeftShoulder
        {
          OFFSET 3.65916 9.38468 -0.509514
          CHANNELS 3 Zrotation Xrotation Yrotation
          JOINT LeftArm
          {
            OFFSET 0 12.3089 0
            CHANNELS 3 Zrotation Xrotation Yrotation
            JOINT LeftArmRoll
            {
              OFFSET 0 6.21375 0
              CHANNELS 3 Zrotation Xrotation Yrotation
              JOINT LeftForeArm
              {
                OFFSET 0 18.0985 0
                CHANNELS 3 Zrotation Xrotation Yrotation
                JOINT LeftForeArmRoll
                {
                  OFFSET 0 6.97279 0
                  CHANNELS 3 Zrotation Xrotation Yrotation
                  JOINT LeftHand
                  {
                    OFFSET 0 13.9929 0
                    CHANNELS 3 Zrotation Xrotation Yrotation
                    End Site
                    {
                      OFFSET 0 0 0
                    }
                  }
                }
              }
            }
          }
        }
      }
    }
  }
  JOINT RightUpLeg
  {
    OFFSET -5.53516 -1.015 -0.851454
    CHANNELS 3 Zrotation Xrotation Yrotation
    JOINT RightUpLegRoll
    {
      OFFSET 0 16.4075 0
      CHANNELS 3 Zrotation Xrotation Yrotation
      JOINT RightLeg
      {
        OFFSET 0 -20.3181 0
        CHANNELS 3 Zrotation Xrotation Yrotation
        JOINT RightLegRoll
        {
          OFFSET 0 20.3846 0
          CHANNELS 3 Zrotation Xrotation Yrotation
          JOINT RightFoot
          {
            OFFSET 0 16.9668 0
            CHANNELS 3 Zrotation Xrotation Yrotation
            JOINT RightToeBase
            {
              OFFSET 0 14.1834 0
              CHANNELS 3 Zrotation Xrotation Yrotation
              End Site
              {
                OFFSET 0.0060118 6.86889 -0.791746
              }
            }
          }
        }
      }
    }
  }
  JOINT LeftUpLeg
  {
    OFFSET 5.53516 -1.015 -0.851454
    CHANNELS 3 Zrotation Xrotation Yrotation
    JOINT LeftUpLegRoll
    {
      OFFSET 0 16.4076 0
      CHANNELS 3 Zrotation Xrotation Yrotation
      JOINT LeftLeg
      {
        OFFSET 0 20.3181 0
        CHANNELS 3 Zrotation Xrotation Yrotation
        JOINT LeftLegRoll
        {
          OFFSET 0 20.5731 0
          CHANNELS 3 Zrotation Xrotation Yrotation
          JOINT LeftFoot
          {
            OFFSET 0 16.7783 0
            CHANNELS 3 Zrotation Xrotation Yrotation
            JOINT LeftToeBase
            {
              OFFSET 0 14.1834 0
              CHANNELS 3 Zrotation Xrotation Yrotation
              End Site
              {
                OFFSET -0.0269423 6.86889 -0.791746
              }
            }
          }
        }
      }
    }
  }
}
MOTION
Frames: 4
Frame Time: 0.00208333
46.7448 83.9136 20.7182 0.42938 -3.2965 -0.823887 -0.262991 -1.33864 0.0852421 -0.531679 1.32152 0.198579 -0.534524 2.96654 0.207683 3.23135 12.987 -0.622906 -2.46556 -3.59899 0.123695 66.3203 0.241965 -0.713882 120.905 31.258 -51.6988 -4.05763e-006 -6.61887e-006 -1.13498e-005 -170.037 87.6472 162.501 -3.11253e-006 7.03691e-006 -3 8.03016 -4.95124 0.69761 -60.8406 -6.94414 4.36354 -123.331 27.9743 52.9543 1.48761e-006 -5.03698e-006 9.50313e-006 -23.7803 84.8755 28.8839 8.64171e-006 1.06752e-005 2.99999 -8.03017 -4.95107 -0.697582 177.013 1.58073 1.52701 180 7.01525e-015 178.831 -179.783 19.4619 178.862 8.87516e-007 -1.14187e-006 0.687673 -28.3644 75.8533 29.796 8.16587 25.7912 -2.73396 -176.037 -2.12091 -3.72876 4.54188e-006 -4.6773e-006 -1.25183 -0.0940704 -20.3708 0.908281 5.32729e-006 4.55902e-006 -0.908363 29.5137 76.499 -31.1169 -8.17227 27.1793 0.887192 
46.7483 83.9157 20.7038 0.430266 -3.29712 -0.828659 -0.262955 -1.33727 0.0855667 -0.530871 1.32448 0.199206 -0.533722 2.96951 0.208288 3.234 12.9977 -0.62368 -2.48271 -3.59961 0.122265 66.3189 0.231827 -0.71912 120.824 31.291 -51.6049 -4.05763e-006 -6.61887e-006 -1.13498e-005 -170.036 87.6182 162.493 -3.11253e-006 7.03691e-006 -3 8.03016 -4.95124 0.69761 -60.8207 -6.94639 4.3641 -123.269 27.9843 52.8604 1.48761e-006 -5.03698e-006 9.50313e-006 -23.6106 84.9088 28.7349 8.64171e-006 1.06752e-005 2.99999 -8.03017 -4.95107 -0.697582 177.01 1.58808 1.5269 180 7.01525e-015 178.831 -179.783 19.4544 178.862 8.87516e-007 -1.14187e-006 0.687058 -28.35 75.8466 29.7812 8.16562 25.7874 -2.73798 -176.039 -2.11733 -3.72745 4.54188e-006 -4.6773e-006 -1.25183 -0.0970224 -20.3609 0.907279 5.32729e-006 4.55902e-006 -0.907542 29.5057 76.4956 -31.1081 -8.17224 27.1764 0.89222 
46.7502 83.9148 20.6756 0.431209 -3.29768 -0.833325 -0.262931 -1.33593 0.0859042 -0.530051 1.32739 0.199854 -0.53291 2.97242 0.208914 3.23633 13.0088 -0.624456 -2.49958 -3.60058 0.120774 66.3177 0.221955 -0.72424 120.743 31.3239 -51.5119 -4.05763e-006 -6.61887e-006 -1.13498e-005 -170.041 87.5889 162.49 -3.11253e-006 7.03691e-006 -3 8.03016 -4.95124 0.69761 -60.8012 -6.94829 4.36446 -123.207 27.9939 52.7678 1.48761e-006 -5.03698e-006 9.50313e-006 -23.4403 84.9405 28.5845 8.64171e-006 1.06752e-005 2.99999 -8.03017 -4.95107 -0.697582 177.007 1.59549 1.52683 180 7.01525e-015 178.831 -179.783 19.4469 178.862 8.87516e-007 -1.14187e-006 0.686444 -28.3356 75.8398 29.7663 8.16536 25.7836 -2.74193 -176.042 -2.11365 -3.72618 4.54188e-006 -4.6773e-006 -1.25183 -0.100076 -20.351 0.906243 5.32729e-006 4.55902e-006 -0.906718 29.4974 76.4921 -31.099 -8.17219 27.1735 0.897179 
46.7518 83.9105 20.6619 0.432193 -3.29818 -0.837917 -0.262915 -1.33462 0.0862508 -0.529222 1.33026 0.200517 -0.532089 2.97528 0.209555 3.23844 13.0201 -0.625235 -2.51625 -3.6018 0.119239 66.3167 0.212271 -0.729279 120.663 31.3566 -51.4196 -4.05763e-006 -6.61887e-006 -1.13498e-005 -170.05 87.5591 162.49 -3.11253e-006 7.03691e-006 -3 8.03016 -4.95124 0.69761 -60.7818 -6.94994 4.36467 -123.146 28.0032 52.6761 1.48761e-006 -5.03698e-006 9.50313e-006 -23.2692 84.9709 28.4326 8.64171e-006 1.06752e-005 2.99999 -8.03017 -4.95107 -0.697582 177.004 1.60295 1.52679 180 7.01525e-015 178.831 -179.783 19.4395 178.862 8.87516e-007 -1.14187e-006 0.685831 -28.3211 75.833 29.7513 8.16509 25.7798 -2.74584 -176.044 -2.10991 -3.72496 4.54188e-006 -4.6773e-006 -1.25183 -0.1032 -20.3411 0.905185 5.32729e-006 4.55902e-006 -0.905891 29.4889 76.4884 -31.0897 -8.17213 27.1707 0.90209 
